<svg xmlns="http://www.w3.org/2000/svg" version="1.1" xmlns:xlink="http://www.w3.org/1999/xlink" xmlns:svgjs="http://svgjs.com/svgjs" width="512" height="512" x="0" y="0" viewBox="0 0 24 24" style="enable-background:new 0 0 512 512" xml:space="preserve" class=""><g><path d="M15 6c0-3.309-2.691-6-6-6S3 2.691 3 6s2.691 6 6 6 6-2.691 6-6Zm-6 4c-2.206 0-4-1.794-4-4s1.794-4 4-4 4 1.794 4 4-1.794 4-4 4Zm-.008 4.938a1 1 0 0 1-.869 1.116A7.006 7.006 0 0 0 1.999 23a1 1 0 0 1-2 0c0-4.531 3.386-8.37 7.876-8.93a1.003 1.003 0 0 1 1.116.869Zm13.704 4.195-.974-.562c.166-.497.278-1.019.278-1.572s-.111-1.075-.278-1.572l.974-.562a1 1 0 0 0-1-1.732l-.973.562A4.972 4.972 0 0 0 18 12.101V11a1 1 0 0 0-2 0v1.101a4.983 4.983 0 0 0-2.723 1.594l-.973-.562a1 1 0 0 0-1 1.732l.974.562c-.166.497-.278 1.019-.278 1.572s.111 1.075.278 1.572l-.974.562a1 1 0 0 0 1 1.732l.973-.562A4.972 4.972 0 0 0 16 21.897v1.101a1 1 0 0 0 2 0v-1.101a4.983 4.983 0 0 0 2.723-1.594l.973.562a.997.997 0 0 0 1.366-.366 1 1 0 0 0-.366-1.366ZM17 19.999c-1.654 0-3-1.346-3-3s1.346-3 3-3 3 1.346 3 3-1.346 3-3 3Z" fill="#000000" data-original="#000000" class=""></path></g></svg>