<?xml version="1.0" encoding="utf-8"?><!-- Generator: Adobe Illustrator 27.5.0, SVG Export Plug-In . SVG Version: 6.00 Build 0)  -->
<svg version="1.1" id="Layer_1" xmlns="http://www.w3.org/2000/svg"
    xmlns:xlink="http://www.w3.org/1999/xlink" x="0px" y="0px" viewBox="0 0 65.3 7.2"
    style="enable-background:new 0 0 65.3 7.2;" xml:space="preserve">
<style type="text/css">
	.st0{fill:#FFFFFF;}
</style>
    <g>
	<g>
		<path style="fill:#FFFFFF;" id="SVGID_1_" class="st0" d="M2,2.2h3.6c0.1,0,0.2,0,0.3,0.1C6,2.4,6,2.5,6,2.6V3c0,0.1,0,0.2-0.1,0.3
			C5.8,3.4,5.7,3.5,5.6,3.5H2V2.2z M0,0.2v6.9h2V5.4h3.6c0.7,0,1.2-0.2,1.7-0.7S8,3.7,8,3V2.6c0-0.7-0.2-1.2-0.7-1.7
			c-0.5-0.5-1-0.7-1.7-0.7H0z M8.7,0.2l0.2,1.7h2.3v5.3h2V1.9h2.3l0.2-1.7H8.7z M16.8,0.2v6.9h7l-0.3-2h-4.7V4.5h3.8l0.2-1.7h-4V2.2
			h4l0.8-2H16.8z M27.2,0.2c-0.7,0-1.2,0.2-1.7,0.7S24.8,2,24.8,2.6v2.1c0,0.7,0.2,1.2,0.7,1.7s1,0.7,1.7,0.7h4.6l-0.3-2h-4.2
			c-0.1,0-0.2,0-0.3-0.1c-0.1-0.1-0.1-0.2-0.1-0.3V2.6c0-0.1,0-0.2,0.1-0.3s0.2-0.1,0.3-0.1H31l0.8-2C31.8,0.2,27.2,0.2,27.2,0.2z
			 M38.4,0.2v2.6H35V0.2h-2v6.9h2V4.5h3.3v2.6h2V0.2H38.4z" />
	</g>
</g>
    <g>
	<path style="fill:#FFFFFF;" class="st0" d="M63.1,5.1c-0.1,0.1-0.2,0.1-0.3,0.1h-4.2l-0.3,2h4.6c0.7,0,1.2-0.2,1.7-0.7c0.5-0.4,0.7-1,0.7-1.6
		s-0.2-1.1-0.7-1.6c-0.5-0.4-1-0.7-1.7-0.7h-3.1c-0.1,0-0.2,0-0.3-0.1s-0.1-0.1-0.1-0.2c0,0,0-0.1,0.1-0.2C59.6,2,59.7,2,59.8,2H64
		l0.3-2h-4.6C59,0,58.5,0.2,58,0.7c-0.5,0.4-0.7,1-0.7,1.6s0.2,1.1,0.7,1.6c0.5,0.4,1,0.7,1.7,0.7h3.1c0.1,0,0.2,0,0.3,0.1
		s0.1,0.1,0.1,0.1S63.1,5,63.1,5.1z" />
        <path style="fill:#FFFFFF;" class="st0" d="M46.5,4.7c0.5-0.5,0.7-1,0.7-1.7V2.6c0-0.7-0.2-1.2-0.7-1.7s-1-0.7-1.7-0.7h-3.6v2h3.6c0.1,0,0.2,0,0.3,0.1
		s0.1,0.2,0.1,0.3V3c0,0.1,0,0.2-0.1,0.3c-0.1,0.1-0.2,0.2-0.3,0.2h-3.6v2h3.6C45.5,5.5,46,5.2,46.5,4.7z" />
        <path style="fill:#FFFFFF;" class="st0" d="M50.6,0.2c-0.7,0-1.2,0.2-1.7,0.7s-0.7,1-0.7,1.7v2.1c0,0.7,0.2,1.2,0.7,1.7s1,0.7,1.7,0.7h3.1
		c0.7,0,1.2-0.2,1.7-0.7s0.7-1.1,0.7-1.7V2.6c0-0.7-0.2-1.2-0.7-1.7s-1.1-0.7-1.7-0.7C53.7,0.2,50.6,0.2,50.6,0.2z M54.2,2.6v2.1
		c0,0.1,0,0.2-0.1,0.3s-0.2,0.1-0.3,0.1h-3.1c-0.1,0-0.2,0-0.3-0.1s-0.1-0.2-0.1-0.3V2.6c0-0.1,0-0.2,0.1-0.3s0.2-0.1,0.3-0.1h3.1
		c0.1,0,0.2,0,0.3,0.1C54.2,2.4,54.2,2.5,54.2,2.6z" />
</g>
</svg>
