<svg xmlns="http://www.w3.org/2000/svg" xmlns:xlink="http://www.w3.org/1999/xlink" width="305" height="331" stroke="#000" stroke-linecap="round" stroke-linejoin="round" fill="#fff" fill-rule="evenodd">
    <g stroke="none" class="B C" fill-rule="nonzero" fill="#177b99">
        <path d="M31.2 278.3l-2.9-11.5c-5.2-2.2-10.4-4.1-15.8-5.7l-.4 5.3-1.5-5.9C4 258.8-.5 257.9-.5 257.9s6.1 23.3 18.9 41l14.9 2.6-11.6 1.7c1.6 1.9 3.3 3.8 5.2 5.5C45.6 326 66.3 334 73.3 326.4s-2.5-27.7-21.2-45c-5.8-5.4-13.1-9.7-20.3-13.1l-.6 10z" opacity=".4"/>
        <path d="M58.9 265.9l3.4-11.3c-3.3-4.5-6.8-8.9-10.6-13l-3.1 4.4 1.8-5.8c-4.7-5.1-8.2-8.1-8.2-8.1s-6.8 23.1-5 44.9l11.4 10-10.8-4.6c.4 2.5.9 5 1.6 7.4 7 24.5 20.7 42 30.6 39.2s12.2-25 5.1-49.4c-2.2-7.6-6.2-15-10.6-21.7l-5.6 8z"/>
    </g>
    <g stroke="#177b99" stroke-linejoin="miter" class="B" fill-rule="nonzero">
        <path d="M229.8 77.9H228V28.2c0-15.9-12.9-28.7-28.7-28.7h0H94.0001C78.1-.5 65.3 12.4 65.3 28.2h0v272.5c0 15.9 12.9 28.7 28.7001 28.7h0H199.2c15.9 0 28.7-12.9 28.7-28.7h0V113.3h1.8V77.9z" fill="#f2f9fc"/>
        <path d="M200.4 7h-13.6999c2.1 5.2-.4 11.2-5.6 13.3-1.2001.5-2.5.8-3.8001.8H117c-5.5999 0-10.1999-4.6-10.1999-10.2 0-1.3.2999-2.6.7999-3.8h-13c-11.9 0-21.5 9.6-21.5 21.5v271.9c0 11.9 9.6 21.5 21.5 21.5h105.7c11.9 0 21.5001-9.6 21.5001-21.5h0V28.4C221.8001 16.6 212.2 7 200.4 7h0z"/>
    </g>
    <g stroke="none" class="B" fill-rule="nonzero">
        <path d="M134 115.4c0-3.9 2.1-7.4 5.4-9.4-5.2-3-11.8-1.2-14.8 4s-1.2 11.8 4 14.8c3.4 1.9 7.5 1.9 10.8 0-3.3-2-5.4-5.6-5.4-9.4zm13.7 0c0-3.9 2.1-7.4 5.4-9.4-5.2-3-11.8-1.2-14.8 4s-1.2 11.8 4 14.8c3.3999 1.9 7.5 1.9 10.8 0-3.4-2-5.4-5.6-5.4-9.4z" class="D" fill="#909ca1"/>
        <path d="M150.2 115.4c0-5.9832 4.8168-10.8 10.8001-10.8S171.8 109.4168 171.8 115.4s-4.8168 10.8-10.7999 10.8S150.2 121.3832 150.2 115.4z" class="C" fill="#177b99"/>
        <path d="M179.1 149.2H116c-1.3 0-2.3-1-2.3-2.3V83.8c0-1.3 1-2.3 2.3-2.3h63.1c1.2999 0 2.3 1 2.3 2.3v63.1c-.1 1.3-1.1001 2.3-2.3 2.3zm-63.2-66.8c-.8001 0-1.4.6-1.4 1.4v63.1c0 .8.5999 1.4 1.4 1.4H179c.8 0 1.3999-.6 1.3999-1.4V83.8c0-.8-.5999-1.4-1.3999-1.4h-63.1zM96.3 197.6h96.8v.9H96.3z" class="D" fill="#909ca1"/>
        <use xlink:href="#B" class="C" fill="#177b99"/>
        <path d="M96.3 228.2h96.8v.9H96.3z" class="D" fill="#909ca1"/>
        <g class="C" fill="#177b99">
            <use xlink:href="#B" y="30.5"/>
            <path d="M191.4 263h-30.6c-1.1 0-2-.9-2-2v-10.7c0-1.1.9-2 2-2h30.6c1.1 0 1.9999.9 1.9999 2V261c0 1.1-.8999 2-1.9999 2z"/>
            <use xlink:href="#B" x="10"/>
            <use xlink:href="#C"/>
            <use xlink:href="#B" x="10" y="30.5"/>
            <use xlink:href="#C" y="30.5"/>
        </g>
        <path d="M249.7 216.4l.5999.3 19.9-8.5.7-5.2H278.8l-.5001 12-26.2 6.9c-.0999.2-.0999.4-.1999.5-1.1 2.3-3.8 3.2-6.0001 2.2-2.2999-1.1-3.2-3.8-2.1999-6 1.0999-2.3 3.6999-3.3 6-2.2h0zm32 108.7h-5.4l-2.6-21h8v21z" class="E" fill="#f9b6b8"/>
        <path d="M272.4 323.6h10.5v6.6h-17.1c0-3.7 3.0001-6.6 6.6-6.6z" fill="#000"/>
        <path d="M302.8 323.6l-5.4.5-4.6-20.6 8-.8 2 20.9z" class="E" fill="#f9b6b8"/>
        <path d="M293.3999 323l10.4001-1 .6 6.6-17 1.7c-.3-3.7 2.4-7 5.9999-7.3z" fill="#000"/>
        <path d="M272.3 169.9c0-6.0386 4.8615-10.9 10.9001-10.9S294.1 163.8614 294.1 169.9s-4.8614 10.9-10.8999 10.9S272.3 175.9386 272.3 169.9z" class="E" fill="#f9b6b8"/>
        <path d="M275.0999 320.9c-.9999 0-1.8-.7-1.9999-1.6l-12.2001-68v-.1-3.8c0-.1 0-.3.1001-.4l1.1999-1.7c.1001-.2.3-.3.5-.3 6.9001-.3 29.6001-1.3 30.7.1h0c1.1001 1.4.7001 5.5.6001 6.4v.1l10.2 65.1c.2 1.1-.6 2.1-1.6001 2.3l-6.3999 1c-1.0001.2-1.9-.4-2.2-1.4L283.2 283c0-.1-.2001-.2-.3001-.2s-.2.1-.2.2l.5001 34.6v.7c0 1-.8 1.9-1.8 2l-6.1001.6h-.2z" class="D" fill="#909ca1"/>
        <path d="M276.3 185c-1.8 1.3-3.2 3.2001-3.7001 5.3-1.1999 3.9-1.8999 7.9001-2.2 12l-.7 12.2-8.4999 32.4001c7.4 6.3 11.6999 4.7999 21.5999-.3S293.9 248.3 293.9 248.3l1.9999-27.5999L298.7 190.6c-.6-.8-1.4001-1.4999-2.2-2.1-5.3-4.0999-12.3-5.6-18.8001-4l-1.3999.5z" class="C" fill="#177b99"/>
        <path d="M273.5001 222.9c.2.1.5.2.7.3l19.6-9.8.3-5.3 8.0999-.6.4 12.1-26.2999 8.7c-.6 2.5-3.1 4.1-5.6 3.5s-4.1-3.1-3.5001-5.6 3.1-4.1 5.6-3.5c.4001.1.6.1.7001.2h0z" class="E" fill="#f9b6b8"/>
        <path d="M298.6001 190.9c4.7999 1.7 5.6999 20.2 5.6999 20.2-5.6999-3.1-12.5 2-12.5 2l-3.0999-11.1c-1.0001-3.6-.2-7.4 2.3-10.2 0-.1 2.7999-2.6 7.6-.9z" class="C" fill="#177b99"/>
        <path d="M293 172.8c-1.4-1.1-3.2.9-3.2.9l-1.0999-9.8s-6.8001.8-11.1001-.3-5 3.9-5 3.9c-.2-1.9999-.3-4.1-.1-6.1.3-2.4 3.8001-4.9 10-6.5s9.5 5.4 9.5 5.4c4.3001 2.2 2.3001 13.5 1 12.5z" fill="#000"/>
    </g>
    <defs >
        <path id="B" d="M96.3 188.9c0-1.7174 1.3826-3.1 3.1-3.1s3.1 1.3826 3.1 3.1-1.3826 3.1-3.1 3.1-3.1-1.3826-3.1-3.1z"/>
        <path id="C" d="M116.2 188.9c0-1.7174 1.3825-3.1 3.1-3.1s3.1 1.3826 3.1 3.1-1.3826 3.1-3.1 3.1-3.1-1.3826-3.1-3.1z"/>
    </defs>
</svg>