<svg xmlns="http://www.w3.org/2000/svg" xmlns:xlink="http://www.w3.org/1999/xlink" width="147" height="95.656" viewBox="0 0 147 95.656">
  <defs>
    <clipPath id="clip-path">
      <path id="Path_89" data-name="Path 89" d="M136.344,143.419a7.144,7.144,0,1,0,7.144-7.144,7.145,7.145,0,0,0-7.144,7.144" transform="translate(-136.344 -136.275)" fill="#147b99"/>
    </clipPath>
    <clipPath id="clip-path-2">
      <path id="Path_90" data-name="Path 90" d="M29.625,0a29.629,29.629,0,0,0-12.76,56.367v-24.4a14.74,14.74,0,0,1,4.482-10.817,14.734,14.734,0,0,1,10.817-4.486,14.728,14.728,0,0,1,10.817,4.486,14.744,14.744,0,0,1,4.486,10.817,14.757,14.757,0,0,1-4.486,10.817,14.741,14.741,0,0,1-10.817,4.482h-6.12V59.033A29.625,29.625,0,1,0,29.625,0Z" fill="#147b99"/>
    </clipPath>
  </defs>
  <g id="Group_5" data-name="Group 5" transform="translate(-115.5 -342.873)">
    <g id="ptech-logo" transform="translate(115.5 422.321)">
      <g id="Group_2" data-name="Group 2" transform="translate(0 0.45)">
        <path id="Path_1" data-name="Path 1" d="M4.5,13.2h8.1a.8.8,0,0,1,.9.9V15a.827.827,0,0,1-.225.675c-.225.225-.45.45-.675.45H4.5ZM0,8.7V24.233H4.5V20.406h8.1a4.937,4.937,0,0,0,3.827-1.576A4.937,4.937,0,0,0,18.009,15v-.9a4.937,4.937,0,0,0-1.576-3.827A4.937,4.937,0,0,0,12.606,8.7Zm19.585,0,.45,3.827h5.178V24.458h4.5V12.527h5.178l.45-3.827Zm18.234,0V24.233H53.577l-.675-4.5H42.322V18.38h8.554l.45-3.827h-9V13.2h9l1.8-4.5Zm23.412,0A4.937,4.937,0,0,0,57.4,10.276,5.272,5.272,0,0,0,55.828,14.1V18.83A4.937,4.937,0,0,0,57.4,22.657a4.937,4.937,0,0,0,3.827,1.576H71.587l-.675-4.5H61.456a.8.8,0,0,1-.9-.9V14.1a.8.8,0,0,1,.9-.9h8.329l1.8-4.5H61.231Zm25.213,0v5.853H78.79V8.7h-4.5V24.233h4.5V18.38h7.429v5.853h4.5V8.7Z" transform="translate(0 -8.7)"/>
      </g>
      <g id="Group_3" data-name="Group 3" transform="translate(92.747 0)">
        <path id="Path_2" data-name="Path 2" d="M70.357,19.981a.827.827,0,0,1-.675.225H60.226l-.675,4.5H69.906a4.937,4.937,0,0,0,3.827-1.576,4.479,4.479,0,0,0,1.576-3.6,4.8,4.8,0,0,0-1.576-3.6,5.874,5.874,0,0,0-3.827-1.576H62.928a.827.827,0,0,1-.675-.225c-.225-.225-.225-.225-.225-.45a.7.7,0,0,1,.225-.45A.827.827,0,0,1,62.928,13h9.455l.675-4.5H62.7a4.937,4.937,0,0,0-3.827,1.576,4.479,4.479,0,0,0-1.576,3.6,4.8,4.8,0,0,0,1.576,3.6A5.874,5.874,0,0,0,62.7,18.855h6.979a.827.827,0,0,1,.675.225l.225.225A2.268,2.268,0,0,0,70.357,19.981Z" transform="translate(-21.056 -8.5)" fill="#147b99"/>
        <path id="Path_3" data-name="Path 3" d="M53.131,18.83A4.937,4.937,0,0,0,54.707,15v-.9a4.937,4.937,0,0,0-1.576-3.827A4.937,4.937,0,0,0,49.3,8.7H41.2v4.5h8.1a.8.8,0,0,1,.9.9V15a.827.827,0,0,1-.225.675c-.225.225-.45.45-.675.45H41.2v4.5h8.1A5.154,5.154,0,0,0,53.131,18.83Z" transform="translate(-41.2 -8.25)" fill="#147b99"/>
        <path id="Path_4" data-name="Path 4" d="M53.6,8.7a4.937,4.937,0,0,0-3.827,1.576A4.937,4.937,0,0,0,48.2,14.1V18.83a4.937,4.937,0,0,0,1.576,3.827A4.937,4.937,0,0,0,53.6,24.233h6.979a4.937,4.937,0,0,0,3.827-1.576,5.272,5.272,0,0,0,1.576-3.827V14.1a4.937,4.937,0,0,0-1.576-3.827A5.272,5.272,0,0,0,60.581,8.7H53.6Zm8.1,5.4V18.83a.8.8,0,0,1-.9.9H53.828a.8.8,0,0,1-.9-.9V14.1a.8.8,0,0,1,.9-.9h6.979a.8.8,0,0,1,.9.9Z" transform="translate(-32.442 -8.25)" fill="#147b99"/>
      </g>
    </g>
    <g id="Group_2395" data-name="Group 2395" transform="translate(159.5 342.873)" style="isolation: isolate">
      <g id="Group_2392" data-name="Group 2392" transform="translate(24.906 24.893)">
        <g id="Group_2391" data-name="Group 2391" clip-path="url(#clip-path)">
          <rect id="Rectangle_191" data-name="Rectangle 191" width="14.287" height="14.287" transform="translate(0 0)" fill="#147b99"/>
        </g>
      </g>
      <g id="Group_2394" data-name="Group 2394">
        <g id="Group_2393" data-name="Group 2393" clip-path="url(#clip-path-2)">
          <rect id="Rectangle_192" data-name="Rectangle 192" width="82.683" height="82.683" transform="matrix(0.812, -0.583, 0.583, 0.812, -28.068, 20.148)" fill="#147b99"/>
        </g>
      </g>
    </g>
  </g>
</svg>
