<?xml version="1.0" encoding="utf-8"?>
<!-- Generator: Adobe Illustrator 27.5.0, SVG Export Plug-In . SVG Version: 6.00 Build 0)  -->
<svg version="1.1" id="Layer_1" xmlns:svgjs="http://svgjs.com/svgjs"
	 xmlns="http://www.w3.org/2000/svg" xmlns:xlink="http://www.w3.org/1999/xlink" x="0px" y="0px" viewBox="0 0 512 512"
	 style="enable-background:new 0 0 512 512;" xml:space="preserve">
<style type="text/css">
	.st0{stroke:#000000;stroke-width:3;stroke-miterlimit:10;}
	.st1{fill:#147B99;}
</style>
<g>
	<path class="st0" d="M396,208h-48V48c0-17.6-14.4-32-32-32H100c-17.6,0-32,14.4-32,32v264c0,17.6,14.4,32,32,32h64v120
		c0,17.6,14.4,32,32,32h216c17.6,0,32-14.4,32-32V256C444,229.5,422.5,208,396,208z M164,328h-36.3c2.8-4.9,4.3-10.4,4.3-16v-72
		c-0.4-13.9,17.8-21.4,27.4-11.3c3,2.9,4.6,6.9,4.6,11.3V328z M148,208c-17.6,0-32,14.4-32,32v72c-0.5,21-31.4,21.2-32,0V48
		c0-8.8,7.2-16,16-16h216c8.8,0,16,7.2,16,16v160H148z M428,464c0,8.8-7.2,16-16,16H196c-8.8,0-16-7.2-16-16V240
		c0-5.6-1.5-11.1-4.2-16H396c17.6,0,32,14.4,32,32V464z"/>
	<path class="st1" d="M132,64c-31.6,0.8-31.6,47.2,0,48C163.6,111.2,163.6,64.8,132,64z M132,96c-10.5-0.2-10.5-15.8,0-16
		C142.5,80.2,142.5,95.8,132,96z M292,80H180c-10.5,0.2-10.5,15.8,0,16h112C302.5,95.8,302.5,80.2,292,80z M132,128
		c-31.6,0.8-31.6,47.2,0,48C163.6,175.2,163.6,128.8,132,128z M132,160c-10.5-0.2-10.5-15.8,0-16C142.5,144.2,142.5,159.8,132,160z
		 M292,144H180c-10.5,0.2-10.5,15.8,0,16h112C302.5,159.8,302.5,144.2,292,144z M236,248c-31.6,0.8-31.6,47.2,0,48
		C267.6,295.2,267.6,248.8,236,248z M236,280c-10.5-0.2-10.5-15.8,0-16C246.5,264.2,246.5,279.8,236,280z M396,264H284
		c-10.5,0.2-10.5,15.8,0,16h112C406.5,279.8,406.5,264.2,396,264z M236,312c-31.6,0.8-31.6,47.2,0,48
		C267.6,359.2,267.6,312.8,236,312z M236,344c-10.5-0.2-10.5-15.8,0-16C246.5,328.2,246.5,343.8,236,344z M396,328H284
		c-10.5,0.2-10.5,15.8,0,16h112C406.5,343.8,406.5,328.2,396,328z M236,376c-31.6,0.8-31.6,47.2,0,48
		C267.6,423.2,267.6,376.8,236,376z M236,408c-10.5-0.2-10.5-15.8,0-16C246.5,392.2,246.5,407.8,236,408z M396,392H284
		c-10.5,0.2-10.5,15.8,0,16h112C406.5,407.8,406.5,392.2,396,392z"/>
</g>
</svg>
