<svg xmlns="http://www.w3.org/2000/svg" version="1.1" xmlns:xlink="http://www.w3.org/1999/xlink" xmlns:svgjs="http://svgjs.com/svgjs" width="512" height="512" x="0" y="0" viewBox="0 0 24 24" style="enable-background:new 0 0 512 512" xml:space="preserve" class=""><g><path d="M0 4c0-.55.45-1 1-1h17c.55 0 1 .45 1 1s-.45 1-1 1H1c-.55 0-1-.45-1-1Zm18 15H1c-.55 0-1 .45-1 1s.45 1 1 1h17c.55 0 1-.45 1-1s-.45-1-1-1Zm5-8H6c-.55 0-1 .45-1 1s.45 1 1 1h17c.55 0 1-.45 1-1s-.45-1-1-1Z" fill="#000000" data-original="#000000" class=""></path></g></svg>