<?xml version="1.0" encoding="UTF-8"?>
<svg xmlns="http://www.w3.org/2000/svg" xmlns:xlink="http://www.w3.org/1999/xlink" width="200px" height="200px" viewBox="0 0 200 200" version="1.1">
<g id="surface1">
<path style=" stroke:none;fill-rule:nonzero;fill:rgb(0%,0%,0%);fill-opacity:1;" d="M 141.667969 91.667969 L 108.332031 91.667969 L 108.332031 58.332031 C 108.332031 53.730469 104.601562 50 100 50 C 95.398438 50 91.667969 53.730469 91.667969 58.332031 L 91.667969 91.667969 L 58.332031 91.667969 C 53.730469 91.667969 50 95.398438 50 100 C 50 104.601562 53.730469 108.332031 58.332031 108.332031 L 91.667969 108.332031 L 91.667969 141.667969 C 91.667969 146.269531 95.398438 150 100 150 C 104.601562 150 108.332031 146.269531 108.332031 141.667969 L 108.332031 108.332031 L 141.667969 108.332031 C 146.269531 108.332031 150 104.601562 150 100 C 150 95.398438 146.269531 91.667969 141.667969 91.667969 Z M 141.667969 91.667969 "/>
</g>
</svg>
